<?xml version="1.0" standalone="no"?>
<!DOCTYPE svg PUBLIC "-//W3C//DTD SVG 1.1//EN" "http://www.w3.org/Graphics/SVG/1.1/DTD/svg11.dtd" >
<svg xmlns="http://www.w3.org/2000/svg" xmlns:xlink="http://www.w3.org/1999/xlink" version="1.1">
<metadata>
Created by FontForge 20200427 at Mon Mar  8 13:26:00 2010
 By www
Copyright (c) 2010 by serge shi. All rights reserved.
</metadata>
<defs>
<font id="Cony-Light" horiz-adv-x="376" >
  <font-face 
    font-family="Cony"
    font-weight="300"
    font-stretch="normal"
    units-per-em="1000"
    panose-1="0 0 0 0 0 0 0 0 0 0"
    ascent="750"
    descent="-250"
    x-height="402"
    cap-height="719"
    bbox="-120 -228 908 1005"
    underline-thickness="50"
    underline-position="-100"
    unicode-range="U+0020-2265"
  />
<missing-glyph horiz-adv-x="400" 
 />
    <glyph glyph-name=".notdef" horiz-adv-x="400" 
 />
    <glyph glyph-name=".null" horiz-adv-x="0" 
 />
    <glyph glyph-name="nonmarkingreturn" horiz-adv-x="333" 
 />
    <glyph glyph-name="space" unicode=" " horiz-adv-x="400" 
 />
    <glyph glyph-name="exclam" unicode="!" horiz-adv-x="171" 
d="M107 716v-545h-44v545h44zM40 45q0 19 13.5 32t32.5 13t32 -13t13 -32t-13 -32.5t-32 -13.5q-20 0 -33 13.5t-13 32.5z" />
    <glyph glyph-name="quotedbl" unicode="&#x22;" horiz-adv-x="256" 
d="M40 467v227h36v-227h-36zM180 467v227h36v-227h-36z" />
    <glyph glyph-name="numbersign" unicode="#" horiz-adv-x="860" 
d="M344 554l-136 -349l311 1l136 348h-311zM161 206l136 349h-100l18 46h100l39 99l47 -1l-39 -99h311l40 100l46 -1l-39 -99h100l-17 -46h-100l-137 -349h100l-22 -46h-100l-39 -98h-47l39 98h-311l-39 -98h-45l38 98h-100l22 47h99z" />
    <glyph glyph-name="dollar" unicode="$" horiz-adv-x="441" 
d="M204 25v350q-36 15 -106 48q-30 14 -44 32.5t-14 57.5v115q0 85 58 90h106v50h42v-50h97q58 -5 58 -90h-44q0 33 -11.5 49t-41.5 16h-58v-296l97 -39q29 -12 43.5 -31t14.5 -59v-178q0 -85 -58 -90h-97v-50h-42v50h-106q-58 5 -58 90h44q0 -33 11.5 -49t41.5 -16h67z
M246 357v-332h58q30 0 41.5 16t11.5 49v197q0 6 -2.5 11.5t-8.5 10.5t-11.5 9t-17.5 9t-20 8.5t-24.5 10.5t-26.5 11zM204 414v279h-67q-30 0 -41.5 -16t-11.5 -49v-128q0 -31 20.5 -46t99.5 -40z" />
    <glyph glyph-name="percent" unicode="%" horiz-adv-x="621" 
d="M79 483q0 -24 1.5 -37t9 -31t26 -27t49.5 -11q25 -1 42 5.5t25.5 15.5t13.5 26t5.5 28.5t0.5 30.5q0 24 -2 38t-9 32t-26 27t-50 9q-25 0 -42 -7t-25.5 -16t-13 -25.5t-5 -27t-0.5 -30.5zM40 483q0 28 1 42.5t7 37.5t18.5 35t37.5 21t61 9q35 0 59.5 -9.5t37 -21.5
t19.5 -34t8.5 -38t1.5 -42q0 -28 -1 -43t-7.5 -38t-19 -35t-37.5 -21t-61 -8t-60.5 10.5t-37 21.5t-19 34t-7.5 37t-1 42zM369 143q0 -24 1.5 -37t9 -31t26 -27t49.5 -11q25 -1 42 5.5t25.5 15.5t13.5 26t5.5 28.5t0.5 30.5q0 24 -2 38t-9 32t-26 27t-50 9q-25 0 -42 -7
t-25.5 -16t-13 -25.5t-5 -27t-0.5 -30.5zM330 143q0 28 1 42.5t7 37.5t18.5 35t37.5 21t61 9q35 0 59.5 -9.5t37 -21.5t19.5 -34t8.5 -38t1.5 -42q0 -28 -1 -43t-7.5 -38t-19 -35t-37.5 -21t-61 -8t-60.5 10.5t-37 21.5t-19 34t-7.5 37t-1 42zM80 -32l434 697l14 -8
l-433 -694z" />
    <glyph glyph-name="ampersand" unicode="&#x26;" horiz-adv-x="593" 
d="M226 316l100 51v161q0 8 -0.5 11.5t-3 6.5t-8.5 3h-172q-14 0 -14 -21v-122zM401 115l-176 162l-141 -70v-163q0 -7 0.5 -10.5t3.5 -6.5t9 -3h290q14 0 14 20v71zM443 87v-65q0 -23 -23 -23h-357q-22 0 -22 23l-1 196l159 83l-119 111v139q0 5 1 7q3 15 22 15h242
q23 0 23 -22l1 -200l-115 -60l147 -132v114h42v-145l130 -106l-20 -23z" />
    <glyph glyph-name="quotesingle" unicode="'" horiz-adv-x="116" 
d="M40 467v227h36v-227h-36z" />
    <glyph glyph-name="parenleft" unicode="(" horiz-adv-x="178" 
d="M40 -1v722q0 84 58 88h40v-24q-56 0 -56 -64v-722q0 -64 53 -64h3v-24h-40q-58 4 -58 88z" />
    <glyph glyph-name="parenright" unicode=")" horiz-adv-x="178" 
d="M138 721v-722q0 -84 -58 -88h-40v24q56 0 56 64v722q0 64 -53 64h-3v24h40q58 -4 58 -88z" />
    <glyph glyph-name="asterisk" unicode="*" horiz-adv-x="333" 
d="M183 434l85 71l25 -27l-103 -87l97 -93l-24 -23l-81 79v-104h-35v104l-83 -70l-24 25l101 85l-97 94l24 22l78 -74v106h37v-108z" />
    <glyph glyph-name="plus" unicode="+" horiz-adv-x="373" 
d="M204 250h-35v129h-129v25h128v138h37v-138h128v-25h-129v-129z" />
    <glyph glyph-name="comma" unicode="," horiz-adv-x="168" 
d="M40 -14v88h88v-91l-69 -127v81l29 49h-48z" />
    <glyph glyph-name="hyphen" unicode="-" horiz-adv-x="373" 
d="M333 224h-293v25h293v-25z" />
    <glyph glyph-name="period" unicode="." horiz-adv-x="171" 
d="M40 42q0 19 13.5 32t32.5 13t32 -13t13 -32t-13 -32.5t-32 -13.5q-20 0 -33 13t-13 33z" />
    <glyph glyph-name="slash" unicode="/" horiz-adv-x="538" 
d="M40 -32l434 697l24 -18l-433 -694z" />
    <glyph glyph-name="zero" unicode="0" horiz-adv-x="441" 
d="M84 628v-538q0 -33 11.5 -49t41.5 -16h167q30 0 41.5 16t11.5 49v538q0 33 -11.5 49t-41.5 16h-167q-30 0 -41.5 -16t-11.5 -49zM40 90v538q0 85 58 90h245q58 -5 58 -90v-538q0 -85 -58 -90h-245q-58 5 -58 90z" />
    <glyph glyph-name="one" unicode="1" horiz-adv-x="306" 
d="M266 717v-716h-44v669l-182 -121v37l185 131h41z" />
    <glyph glyph-name="two" unicode="2" horiz-adv-x="451" 
d="M85 189l-1 -160h326l1 -29h-370l-1 193q0 70 58 103l211 97q22 12 32 20t18 25.5t8 44.5v145q0 33 -11.5 49t-41.5 16h-167q-31 0 -42 -14.5t-11 -46.5h-44q0 81 58 86h245q58 -5 58 -90v-160q0 -27 -9 -45t-18.5 -25.5t-30.5 -19.5l-210 -99q-21 -12 -30.5 -19.5
t-18.5 -25.5t-9 -45z" />
    <glyph glyph-name="three" unicode="3" horiz-adv-x="443" 
d="M401 409v-319q0 -85 -58 -90h-245q-58 5 -58 90h44q0 -33 11.5 -49t41.5 -16h167q30 0 41.5 16t11.5 49v319q0 33 -11.5 49t-41.5 16h-87l-1 25l124 208l-299 1v25h362l-133 -234h73q58 -5 58 -90z" />
    <glyph glyph-name="four" unicode="4" horiz-adv-x="442" 
d="M120 719l44 -1l-80 -381h274v381h44v-718h-44v313h-318z" />
    <glyph glyph-name="five" unicode="5" horiz-adv-x="441" 
d="M401 409v-319q0 -45 -10.5 -66.5t-37.5 -23.5h-245q-30 2 -49 25.5t-19 64.5h44q0 -33 11.5 -49t41.5 -16h167q30 0 41.5 16t11.5 49v319q0 30 -17.5 47.5t-49.5 17.5h-247v256l358 3v-31l-305 3v-206h247q58 -5 58 -90z" />
    <glyph glyph-name="six" unicode="6" horiz-adv-x="439" 
d="M355 90v322q0 33 -11.5 49t-41.5 16h-218v-387q0 -33 11.5 -49t41.5 -16h165q30 0 41.5 16t11.5 49zM341 0h-243q-58 5 -58 90v538q0 85 58 90h243q58 -5 58 -90h-44q0 33 -11.5 49t-41.5 16h-165q-30 0 -41.5 -16t-12.5 -49v-126h258q58 -5 58 -90v-322q0 -85 -58 -90z
" />
    <glyph glyph-name="seven" unicode="7" horiz-adv-x="420" 
d="M400 696l-317 -695h-43l318 694h-275v-63h-42v87h359v-23z" />
    <glyph glyph-name="eight" unicode="8" horiz-adv-x="441" 
d="M84 324v-234q0 -33 11.5 -49t41.5 -16h167q30 0 41.5 16t11.5 49v234q0 33 -11.5 49t-41.5 16h-167q-30 0 -41.5 -16t-11.5 -49zM125 627v-148q0 -19 1.5 -27.5t9.5 -19t28 -14.5t54 -4q36 0 56.5 4t29 14.5t10 19t1.5 27.5v148q0 19 -1.5 27.5t-10 19t-29 14.5t-56.5 4
q-34 0 -54 -4t-28 -14.5t-9.5 -19t-1.5 -27.5zM346 414q55 -8 55 -90v-234q0 -85 -58 -90h-245q-58 5 -58 90v234q0 81 56 89q-15 25 -15 66v148q0 85 58 90h162q58 -5 58 -90v-148q0 -43 -13 -65z" />
    <glyph glyph-name="nine" unicode="9" horiz-adv-x="439" 
d="M84 628v-322q0 -33 11.5 -49t41.5 -16h218v387q0 33 -11.5 49t-41.5 16h-165q-30 0 -41.5 -16t-11.5 -49zM98 718h243q58 -5 58 -90v-538q0 -85 -58 -90h-243q-58 5 -58 90h44q0 -33 11.5 -49t41.5 -16h165q30 0 41.5 16t12.5 49v126h-258q-58 5 -58 90v322q0 85 58 90z
" />
    <glyph glyph-name="colon" unicode=":" horiz-adv-x="171" 
d="M40 42q0 19 13.5 32t32.5 13t32 -13t13 -32t-13 -32.5t-32 -13.5q-20 0 -33 13t-13 33zM40 395q0 19 13.5 32t32.5 13t32 -13t13 -32t-13 -32.5t-32 -13.5q-20 0 -33 13.5t-13 32.5z" />
    <glyph glyph-name="semicolon" unicode=";" horiz-adv-x="171" 
d="M40 -9v88h88v-91l-69 -127v81l29 49h-48zM40 395q0 19 13.5 32t32.5 13t32 -13t13 -32t-13 -32.5t-32 -13.5q-20 0 -33 13.5t-13 32.5z" />
    <glyph glyph-name="less" unicode="&#x3c;" horiz-adv-x="369" 
d="M302 531l23 -21q-10 -10 -119 -124.5t-128 -133.5q19 -22 128 -134.5t123 -128.5l-19 -19l-270 283z" />
    <glyph glyph-name="equal" unicode="=" horiz-adv-x="373" 
d="M333 379h-293v25h293v-25zM333 251h-293v25h293v-25z" />
    <glyph glyph-name="greater" unicode="&#x3e;" horiz-adv-x="369" 
d="M44 510l23 21l262 -278l-270 -283l-19 19q14 16 123 128.5t128 134.5q-19 19 -128 133.5t-119 124.5z" />
    <glyph glyph-name="question" unicode="?" horiz-adv-x="441" 
d="M195 309v-147h-44v151q0 31 51.5 81t103 94.5t51.5 61.5v78q0 33 -11.5 49t-41.5 16h-167q-31 0 -42 -14.5t-11 -46.5h-44q0 81 58 86h245q58 -5 58 -90v-60q0 -25 -32 -56.5t-71 -58t-71 -66t-32 -78.5zM130 45q0 19 13.5 32t32.5 13t32 -13t13 -32t-13 -32.5t-32 -13.5
q-20 0 -33 13.5t-13 32.5z" />
    <glyph glyph-name="at" unicode="@" horiz-adv-x="779" 
d="M666 0h-366q-58 5 -58 90v65q0 85 58 90h195l-1 73q-1 33 -12 49t-41 16h-102q-30 0 -41.5 -16t-11.5 -49h-44q0 85 58 90h180q58 -5 58 -90v-295h151q4 0 4 21v509q0 11 -2 15.5t-12 4.5h-578q-10 0 -12 -4.5t-2 -15.5v-642q-2 0 -5 0.5t-11 5.5t-14.5 13t-11.5 26.5
t-5 43.5v510q0 35 19 62t54 27h552q31 0 52.5 -28t21.5 -61v-422q0 -34 -20.5 -61t-52.5 -27zM286 155v-65q0 -33 11.5 -49t41.5 -16h102q30 0 41.5 16t11.5 49v130h-155q-30 0 -41.5 -16t-11.5 -49z" />
    <glyph glyph-name="A" unicode="A" horiz-adv-x="442" 
d="M84 380v-380h-44v633l81 85h281v-718h-44v380h-274zM84 614v-210h274v290h-198z" />
    <glyph glyph-name="B" unicode="B" horiz-adv-x="440" 
d="M400 320v-234q0 -81 -58 -86h-302v718h244q30 0 47 -19t17 -57v-146q0 -41 -13 -64.5t-48 -25.5h55q58 -5 58 -86zM304 464v170q0 32 -11 46t-42 14h-168v-290h168q31 0 42 14t11 46zM356 85v235q0 32 -11 46t-42 14h-220v-355h220q31 0 42 14t11 46z" />
    <glyph glyph-name="C" unicode="C" horiz-adv-x="441" 
d="M40 90v538q0 85 58 90h245q58 -5 58 -90h-44q0 33 -11.5 49t-41.5 16h-167q-30 0 -41.5 -16t-11.5 -49v-538q0 -33 11.5 -49t41.5 -16h167q30 0 41.5 16t11.5 49h44q0 -85 -58 -90h-245q-58 5 -58 90z" />
    <glyph glyph-name="D" unicode="D" horiz-adv-x="441" 
d="M84 693v-666l220 -2q30 0 41.5 16t11.5 49v538q0 33 -11.5 49t-41.5 16h-220zM40 0v718h303q58 -5 58 -90v-538q0 -85 -58 -90h-303z" />
    <glyph glyph-name="E" unicode="E" horiz-adv-x="481" 
d="M60 0v718h361v-90h-44v66h-273v-290h233v-24h-233v-355h273v65h44v-90h-361z" />
    <glyph glyph-name="F" unicode="F" horiz-adv-x="421" 
d="M60 0v718h361v-90h-44v66h-273v-290h233v-24h-233v-379z" />
    <glyph glyph-name="G" unicode="G" horiz-adv-x="481" 
d="M377 149v231h-120v24h163v-404h-43v46q0 -17 -32.5 -31.5t-63.5 -14.5h-163q-58 5 -58 90v538q0 85 58 90h245q58 -5 58 -90h-44q0 33 -11.5 49t-41.5 16h-167q-30 0 -41.5 -16t-11.5 -49v-538q0 -33 11.5 -49t41.5 -16h80q70 3 105 28t35 96z" />
    <glyph glyph-name="H" unicode="H" horiz-adv-x="482" 
d="M60 719l44 -1v-314h274v314h44v-718h-44v380h-274v-380h-44v719z" />
    <glyph glyph-name="I" unicode="I" horiz-adv-x="204" 
d="M80 717l44 1v-718h-44v717z" />
    <glyph glyph-name="J" unicode="J" horiz-adv-x="461" 
d="M401 719v-629q0 -85 -58 -90h-245q-58 5 -58 90h34q0 -33 11.5 -49t41.5 -16h177q30 0 41.5 16t11.5 49v629h44z" />
    <glyph glyph-name="K" unicode="K" horiz-adv-x="439" 
d="M60 0v718h43v-314h58l193 314h39l-191 -314l-7 -8l7 -8l197 -388h-52l-191 379h-53v-379h-43z" />
    <glyph glyph-name="L" unicode="L" horiz-adv-x="421" 
d="M60 719l44 -1v-693h277v-25h-321v719z" />
    <glyph glyph-name="M" unicode="M" horiz-adv-x="728" 
d="M668 718v-718h-43v650l-233 -580h-36l-266 579v-649h-30v718h42l276 -583l243 583h47z" />
    <glyph glyph-name="N" unicode="N" horiz-adv-x="541" 
d="M60 719l382 -583v583h39v-718l-384 582v-582h-37v718z" />
    <glyph glyph-name="O" unicode="O" horiz-adv-x="481" 
d="M104 628v-538q0 -33 11.5 -49t41.5 -16h167q30 0 41.5 16t11.5 49v538q0 33 -11.5 49t-41.5 16h-167q-30 0 -41.5 -16t-11.5 -49zM60 90v538q0 85 58 90h245q58 -5 58 -90v-538q0 -85 -58 -90h-245q-58 5 -58 90z" />
    <glyph glyph-name="P" unicode="P" horiz-adv-x="460" 
d="M420 632v-234q0 -81 -58 -86h-255l-2 -312h-45v718h302q58 -5 58 -86zM376 398v235q0 32 -11 46t-42 14h-220v-355h220q31 0 42 14t11 46z" />
    <glyph glyph-name="Q" unicode="Q" horiz-adv-x="481" 
d="M256 25l-152 53q3 -53 53 -53h99zM351 0l127 -64l-11 -23l-172 87v0h-177q-58 5 -58 90v538q0 85 58 90h245q58 -5 58 -90v-538q0 -85 -58 -90h-12zM104 106l215 -81q23 5 40.5 23t17.5 42v538q0 33 -11.5 49t-41.5 16h-167q-30 0 -41.5 -16t-11.5 -49v-522z" />
    <glyph glyph-name="R" unicode="R" horiz-adv-x="480" 
d="M376 398v235q0 32 -11 46t-42 14h-220v-355h220q31 0 42 14t11 46zM362 312h-87l160 -312h-46l-162 312h-120l-1 -312h-46v718h302q58 -5 58 -86v-234q0 -81 -58 -86z" />
    <glyph glyph-name="S" unicode="S" horiz-adv-x="481" 
d="M157 425l206 -67q29 -12 43.5 -31t14.5 -59v-178q0 -85 -58 -90h-245q-58 5 -58 90h44q0 -33 11.5 -49t41.5 -16h167q30 0 41.5 16t11.5 49v207q0 13 -6 20t-26 15.5t-45 16.5t-76 28t-106 46q-30 14 -44 32.5t-14 57.5v115q0 85 58 90h245q58 -5 58 -90h-54
q0 33 -11.5 49t-41.5 16h-157q-30 0 -41.5 -16t-11.5 -49v-138q0 -29 10.5 -40.5t42.5 -24.5z" />
    <glyph glyph-name="T" unicode="T" horiz-adv-x="520" 
d="M244 694h-224v25h480v-25h-212v-693l-44 -1v694z" />
    <glyph glyph-name="U" unicode="U" horiz-adv-x="481" 
d="M60 719l44 -1v-628q0 -33 11.5 -49t41.5 -16h167q30 0 41.5 16t11.5 49v628h44v-628q0 -85 -58 -90h-245q-58 5 -58 90v629z" />
    <glyph glyph-name="V" unicode="V" horiz-adv-x="477" 
d="M60 718h39l151 -703l152 703h35l-158 -718h-65z" />
    <glyph glyph-name="W" unicode="W" horiz-adv-x="796" 
d="M398 535l-119 -535h-45l-154 718h39l141 -673l122 566l-23 107h39l141 -673l182 673h35l-198 -718h-45z" />
    <glyph glyph-name="X" unicode="X" horiz-adv-x="503" 
d="M235 395l171 323h35l-189 -360l171 -356h-39l-151 321l-156 -321h-35l173 355l-175 361h39z" />
    <glyph glyph-name="Y" unicode="Y" horiz-adv-x="503" 
d="M267 340l181 378h35l-195 -404l1 -313h-39v294l-190 423h39z" />
    <glyph glyph-name="Z" unicode="Z" horiz-adv-x="499" 
d="M399 718l-278 -693h265v63h43v-88h-369l280 694h-226v-66h-39v90h324z" />
    <glyph glyph-name="bracketleft" unicode="[" horiz-adv-x="178" 
d="M40 -88v898h98v-25h-56v-850h56v-24z" />
    <glyph glyph-name="backslash" unicode="\" horiz-adv-x="498" 
d="M44 665l434 -697l-25 -15l-433 694z" />
    <glyph glyph-name="bracketright" unicode="]" horiz-adv-x="178" 
d="M138 810v-898l-98 -1v24h56v850h-56v25h98z" />
    <glyph glyph-name="asciicircum" unicode="^" horiz-adv-x="601" 
d="M561 468l-21 -33q-12 11 -115.5 109.5t-122.5 117.5q-22 -19 -124.5 -118t-118.5 -113l-19 29l263 260z" />
    <glyph glyph-name="underscore" unicode="_" horiz-adv-x="613" 
d="M573 1h-533v25h533v-25z" />
    <glyph glyph-name="grave" unicode="`" horiz-adv-x="220" 
d="M180 513l-160 134l23 18l157 -135z" />
    <glyph glyph-name="a" unicode="a" 
d="M40 90v65q0 85 58 90h195l-1 73q-1 33 -12 49t-41 16h-102q-30 0 -41.5 -16t-11.5 -49h-44q0 85 58 90h180q58 -5 58 -90v-318h-238q-58 5 -58 90zM84 155v-65q0 -33 11.5 -49t41.5 -16h102q30 0 41.5 16t11.5 49v130h-155q-30 0 -41.5 -16t-11.5 -49z" />
    <glyph glyph-name="b" unicode="b" 
d="M40 0v612h44v-208h194q58 -5 58 -89v-225q0 -85 -58 -90h-238zM84 380v-290q0 -33 11.5 -49t41.5 -16h102q30 0 41.5 16t11.5 49v225q0 33 -11.5 49t-41.5 16h-155z" />
    <glyph glyph-name="c" unicode="c" 
d="M40 90v225q0 85 58 90h180q58 -5 58 -90h-44q0 33 -11.5 49t-41.5 16h-102q-30 0 -41.5 -16t-11.5 -49v-225q0 -33 11.5 -49t41.5 -16h102q30 0 41.5 16t11.5 49h44q0 -85 -58 -90h-180q-58 5 -58 90z" />
    <glyph glyph-name="d" unicode="d" 
d="M336 612v-612h-238q-58 5 -58 90v225q0 84 58 89h194v208h44zM292 90v290h-155q-30 0 -41.5 -16t-11.5 -49v-225q0 -33 11.5 -49t41.5 -16h102q30 0 41.5 16t11.5 49z" />
    <glyph glyph-name="e" unicode="e" 
d="M292 283v35q0 33 -11.5 49t-41.5 16h-102q-30 0 -41.5 -16t-11.5 -49v-100h155q30 0 41.5 16t11.5 49zM98 408h180q58 -5 58 -90v-35q0 -85 -58 -90h-195v-103q1 -33 12.5 -49t41.5 -16h102q30 0 41.5 16t11.5 49h44q0 -85 -58 -90h-180q-58 5 -58 90v228q0 85 58 90z
" />
    <glyph glyph-name="f" unicode="f" horiz-adv-x="296" 
d="M84 394v-394h-44v522q0 85 58 90h180q58 -5 58 -90h-44q0 33 -11.5 49t-41.5 16h-102q-30 0 -41.5 -16t-12.5 -49v-103h169v-25h-168z" />
    <glyph glyph-name="g" unicode="g" 
d="M84 318v-207q0 -33 11.5 -49t41.5 -16h155v272q0 33 -11.5 49t-41.5 16h-102q-30 0 -41.5 -16t-11.5 -49zM98 408h180q24 -1 40 -21q18 -23 18 -69v-436q0 -85 -58 -90h-180q-58 5 -58 90h44q0 -33 11.5 -49t41.5 -16h102q30 0 41.5 16t12.5 49v139h-195q-58 5 -58 90
v207q0 85 58 90z" />
    <glyph glyph-name="h" unicode="h" 
d="M84 358v-357h-44v611h44v-230l194 22q58 -5 58 -89v-315h-44v315q0 31 -11 43t-42 12z" />
    <glyph glyph-name="i" unicode="i" horiz-adv-x="171" 
d="M106 402v-401h-44v401h44zM40 542q0 19 13.5 32t32.5 13t32 -13t13 -32t-13 -32.5t-32 -13.5q-20 0 -33 13t-13 33z" />
    <glyph glyph-name="j" unicode="j" horiz-adv-x="235" 
d="M133 401h43v-521q0 -85 -58 -90h-180q-58 5 -58 90h44q0 -33 11.5 -49t41.5 -16h102q30 0 41.5 16t12.5 49v521zM102 542q0 19 13.5 32t32.5 13t32 -13t13 -32t-13 -32.5t-32 -13.5q-20 0 -33 13t-13 33z" />
    <glyph glyph-name="k" unicode="k" horiz-adv-x="329" 
d="M40 0v614h43v-380h18l153 170h39l-137 -150l-7 -8l7 -8l153 -238h-52l-131 209h-43v-209h-43z" />
    <glyph glyph-name="l" unicode="l" horiz-adv-x="124" 
d="M84 612v-611h-44v611h44z" />
    <glyph glyph-name="m" unicode="m" horiz-adv-x="548" 
d="M411 370l-119 -18q4 -15 4 -37v-315h-44v315q0 33 -11.5 47.5t-41.5 7.5l-115 -17v-352h-44v401h44v-25l154 27q24 4 46 -33l166 33q27 5 42.5 -20t15.5 -69v-315h-44v315q0 33 -11.5 47.5t-41.5 7.5z" />
    <glyph glyph-name="n" unicode="n" 
d="M84 353v-352h-44v401h44v-25l194 27q28 5 43 -20t15 -69v-315h-44v315q0 33 -11.5 47.5t-41.5 7.5z" />
    <glyph glyph-name="o" unicode="o" 
d="M84 316v-226q0 -33 11.5 -49t41.5 -16h102q30 0 41.5 16t11.5 49v226q0 33 -11.5 49t-41.5 16h-102q-30 0 -41.5 -16t-11.5 -49zM40 90v226q0 85 58 90h180q58 -5 58 -90v-226q0 -85 -58 -90h-180q-58 5 -58 90z" />
    <glyph glyph-name="p" unicode="p" horiz-adv-x="396" 
d="M84 362v-316l155 -10q31 -4 42 9.5t11 45.5v226q0 32 -11 45.5t-42 9.5zM41 -204l-1 608h44v-17l194 20q28 4 43 -21t15 -69v-226q0 -44 -15 -69t-43 -21l-196 20l1 -225h-42z" />
    <glyph glyph-name="q" unicode="q" 
d="M292 91v226q0 33 -11.5 49t-41.5 16h-102q-30 0 -41.5 -16t-11.5 -49v-226q0 -33 11.5 -49t41.5 -16h102q30 0 41.5 16t11.5 49zM336 317l-1 -521h-42v205h-195q-58 5 -58 90v226q0 85 58 90h180q58 -5 58 -90z" />
    <glyph glyph-name="r" unicode="r" horiz-adv-x="346" 
d="M84 353v-352h-44v401h44v-25l194 27q28 5 43 -20t15 -69h-44q0 33 -11.5 47.5t-41.5 7.5z" />
    <glyph glyph-name="s" unicode="s" horiz-adv-x="378" 
d="M137 249l143 -57q58 -23 58 -106q0 -47 -14 -65.5t-44 -20.5h-182q-58 5 -58 90h44q0 -33 11.5 -49t41.5 -16h104q30 0 41 16t12 49q1 41 -32.5 64t-163.5 83q-30 14 -44 33t-14 62q0 40 13.5 54t44.5 16h182q58 -5 58 -90h-44q0 33 -11.5 49t-41.5 16h-104h-9
q-16 0 -22.5 -0.5t-12.5 -5.5t-7.5 -16t-1.5 -31q0 -30 11.5 -46.5t41.5 -28.5z" />
    <glyph glyph-name="t" unicode="t" horiz-adv-x="346" 
d="M84 612v-208h168v-25h-169v-289q1 -33 12.5 -49t41.5 -16h102q30 0 41.5 16t11.5 49h44q0 -85 -58 -90h-180q-58 5 -58 90v522h44z" />
    <glyph glyph-name="u" unicode="u" 
d="M292 50v352h44v-401h-44v25l-194 -27q-28 -5 -43 20t-15 69v315h44v-315q0 -33 11.5 -47.5t41.5 -7.5z" />
    <glyph glyph-name="v" unicode="v" horiz-adv-x="357" 
d="M20 404h39l130 -359l113 359h35l-129 -404h-45z" />
    <glyph glyph-name="w" unicode="w" horiz-adv-x="591" 
d="M302 269l-82 -269h-45l-155 404h39l142 -359l79 273l-26 86h39l142 -359l101 359h35l-117 -404h-45z" />
    <glyph glyph-name="x" unicode="x" horiz-adv-x="298" 
d="M153 236l91 167h34l-108 -195l108 -206h-46l-88 171l-86 -171h-38l109 204l-109 197h43z" />
    <glyph glyph-name="y" unicode="y" 
d="M336 404v-542q0 -85 -58 -90h-180q-58 5 -58 90h44q0 -33 11.5 -49t41.5 -16h102q30 0 41.5 16t12.5 49v139h-195q-58 5 -58 90v313h44v-313q0 -33 11.5 -49t41.5 -16h155v378h44z" />
    <glyph glyph-name="z" unicode="z" horiz-adv-x="388" 
d="M348 402l-247 -377h236l1 -25h-298l249 378h-249l1 24h307z" />
    <glyph glyph-name="braceleft" unicode="{" horiz-adv-x="226" 
d="M98 11v298q0 23 -4 23h-54v56h54q4 0 4 23l1 298q0 36 20 66.5t54 30.5h33v-22h-55v-341v-2q0 -52 -8 -64q-11 -15 -42 -16v-2q34 -2 42 -18.5t8 -61.5v-2v-341h54v-22h-33q-31 0 -52.5 32t-21.5 65z" />
    <glyph glyph-name="bar" unicode="|" horiz-adv-x="114" 
d="M40 768l34 -1v-817h-34v818z" />
    <glyph glyph-name="braceright" unicode="}" horiz-adv-x="226" 
d="M148 309v-298q0 -33 -21.5 -65t-52.5 -32h-33v22h54v341v2q0 31 2 44.5t13 24t35 11.5v2q-18 1 -29 5t-15 15.5t-5 21t-1 30.5v8v2v341h-55v22h33q34 0 54 -30.5t20 -66.5l1 -298q0 -23 4 -23h54v-56h-54q-4 0 -4 -23z" />
    <glyph glyph-name="asciitilde" unicode="~" horiz-adv-x="591" 
d="M63 174l-23 18q69 149 215 64q14 -8 47 -45t62 -42q45 -7 98.5 21.5t53.5 78.5l35 2q0 -76 -62 -109t-137 -17q-28 6 -50.5 22.5t-34.5 33t-31.5 31.5t-40.5 17.5t-61 -8.5q-23 -8 -43.5 -28t-27.5 -39z" />
    <glyph glyph-name="sterling" unicode="&#xa3;" horiz-adv-x="448" 
d="M112 62v78v254h-50v25h50v103q0 85 58 90h180q58 -5 58 -90h-44q0 33 -11.5 49t-41.5 16h-102q-30 0 -41.5 -16t-12.5 -49v-103h169v-25h-168l-1 -262q0 -36 60 -65q64 -31 113 -19q36 9 36 42h44q0 -45 -15.5 -71t-42.5 -19l-180 49l-112 -49l-18 30z" />
    <glyph glyph-name="section" unicode="&#xa7;" horiz-adv-x="455" 
d="M375 240v188q0 14 -13 21h-262q-12 -6 -12 -21v-127zM413 468l-2 -446q0 -23 -22 -23h-326q-23 0 -23 23v61h42v-39q0 -7 13 -20h262q13 6 13 20v164l-326 73l1 170q0 22 23 22l284 -1l-306 130l1 170q0 22 23 22h322q23 0 23 -22v-62h-38v39q0 15 -13 21h-262
q-12 -6 -12 -21v-137l309 -125q14 -7 14 -19z" />
    <glyph glyph-name="copyright" unicode="&#xa9;" horiz-adv-x="660" 
d="M67 359q0 -109 77 -186t186 -77t186 77t77 186t-77 186t-186 77t-186 -77t-77 -186zM40 359q0 120 85 205t205 85t205 -85t85 -205t-85 -205t-205 -85t-205 85t-85 205zM232 525h197q19 0 19 -20v-52h-28v33q0 17 -2 17h-179q-2 -2 -2 -17v-256q0 -14 2 -16v-2h179v2
q2 1 2 16v32h28v-51q0 -19 -19 -19h-197q-19 0 -19 19v294q0 20 19 20z" />
    <glyph glyph-name="guillemotleft" unicode="&#xab;" horiz-adv-x="591" 
d="M302 531l23 -21q-10 -10 -119 -124.5t-128 -133.5q19 -22 128 -134.5t123 -128.5l-19 -19l-270 283zM524 531l23 -21q-10 -10 -119 -124.5t-128 -133.5q19 -22 128 -134.5t123 -128.5l-19 -19l-270 283z" />
    <glyph glyph-name="logicalnot" unicode="&#xac;" horiz-adv-x="468" 
d="M428 318h-31v107h-357v36h388v-143z" />
    <glyph glyph-name="registered" unicode="&#xae;" horiz-adv-x="660" 
d="M235 326v-135h-25v334h186q52 0 52 -66v-68q1 -34 -13.5 -49.5t-46.5 -15.5h-100l171 -135h-45zM235 346h164q4 0 9.5 1t14 10.5t8.5 25.5v82q0 16 -8.5 25.5t-14 10.5t-9.5 1h-164v-156zM67 359q0 -109 77 -186t186 -77t186 77t77 186t-77 186t-186 77t-186 -77
t-77 -186zM40 359q0 120 85 205t205 85t205 -85t85 -205t-85 -205t-205 -85t-205 85t-85 205z" />
    <glyph glyph-name="degree" unicode="&#xb0;" horiz-adv-x="330" 
d="M67 503q0 -41 28.5 -69t69.5 -28t69.5 28t28.5 69t-28.5 69t-69.5 28t-69.5 -28t-28.5 -69zM40 503q0 52 36.5 88.5t88.5 36.5t88.5 -36.5t36.5 -88.5t-36.5 -88.5t-88.5 -36.5t-88.5 36.5t-36.5 88.5z" />
    <glyph glyph-name="plusminus" unicode="&#xb1;" horiz-adv-x="373" 
d="M200 250h-27v129h-133v25h132v138h28v-138h133v-25h-133v-129zM333 169h-293v25h293v-25z" />
    <glyph glyph-name="paragraph" unicode="&#xb6;" horiz-adv-x="519" 
d="M114 717q2 0 166 1t199 1v-40h-79v-829h-32l-1 829h-128v-828h-34v532l-96 -1h3v0q-31 7 -51.5 33t-20.5 56v157q0 34 22.5 61.5t51.5 27.5z" />
    <glyph glyph-name="guillemotright" unicode="&#xbb;" horiz-adv-x="591" 
d="M266 510l23 21l262 -278l-270 -283l-19 19q14 16 123 128.5t128 134.5q-19 19 -128 133.5t-119 124.5zM44 510l23 21l262 -278l-270 -283l-19 19q14 16 123 128.5t128 134.5q-19 19 -128 133.5t-119 124.5z" />
    <glyph glyph-name="divide" unicode="&#xf7;" horiz-adv-x="373" 
d="M141 282q0 19 13.5 32t32.5 13t32 -13t13 -32t-13 -32.5t-32 -13.5t-32.5 13t-13.5 33zM141 508q0 19 13.5 32t32.5 13t32 -13t13 -32t-13 -32.5t-32 -13.5t-32.5 13t-13.5 33zM333 379h-293v25h293v-25z" />
    <glyph glyph-name="afii10023" unicode="&#x401;" horiz-adv-x="441" 
d="M72 904q0 19 13.5 32t32.5 13t32 -13t13 -32t-13 -32.5t-32 -13.5q-20 0 -33 13t-13 33zM282 904q0 19 13.5 32t32.5 13t32 -13t13 -32t-13 -32.5t-32 -13.5q-20 0 -33 13t-13 33zM40 0v718h361v-90h-44v66h-273v-290h233v-24h-233v-355h273v65h44v-90h-361z" />
    <glyph glyph-name="afii10052" unicode="&#x403;" horiz-adv-x="421" 
d="M275 977l-160 -134l-20 27l157 135zM40 0v718h361v-90h-44v66h-273v-693z" />
    <glyph glyph-name="afii10054" unicode="&#x405;" horiz-adv-x="441" 
d="M137 425l206 -67q29 -12 43.5 -31t14.5 -59v-178q0 -85 -58 -90h-245q-58 5 -58 90h44q0 -33 11.5 -49t41.5 -16h167q30 0 41.5 16t11.5 49v207q0 13 -6 20t-26 15.5t-45 16.5t-76 28t-106 46q-30 14 -44 32.5t-14 57.5v115q0 85 58 90h245q58 -5 58 -90h-54
q0 33 -11.5 49t-41.5 16h-157q-30 0 -41.5 -16t-11.5 -49v-138q0 -29 10.5 -40.5t42.5 -24.5z" />
    <glyph glyph-name="afii10055" unicode="&#x406;" horiz-adv-x="124" 
d="M40 719l44 -1v-718h-44v719z" />
    <glyph glyph-name="afii10056" unicode="&#x407;" horiz-adv-x="301" 
d="M0 914q0 19 13.5 32t32.5 13t32 -13t13 -32t-13 -32.5t-32 -13.5q-20 0 -33 13t-13 33zM210 914q0 19 13.5 32t32.5 13t32 -13t13 -32t-13 -32.5t-32 -13.5q-20 0 -33 13t-13 33zM106 719l44 -1v-718h-44v719z" />
    <glyph glyph-name="afii10057" unicode="&#x408;" horiz-adv-x="461" 
d="M401 719v-629q0 -85 -58 -90h-245q-58 5 -58 90h34q0 -33 11.5 -49t41.5 -16h177q30 0 41.5 16t11.5 49v629h44z" />
    <glyph glyph-name="afii10061" unicode="&#x40c;" horiz-adv-x="399" 
d="M304 967l-160 -134l-20 27l157 135zM40 0v718h43v-314h58l193 314h39l-191 -314l-7 -8l7 -8l197 -388h-52l-191 379h-53v-379h-43z" />
    <glyph glyph-name="afii10062" unicode="&#x40e;" horiz-adv-x="516" 
d="M105 984h14q3 -93 74 -128.5t139 3.5t62 125h19q-2 -56 -33 -95.5t-74.5 -50t-87.5 -2t-76.5 48t-36.5 99.5zM418 719v-630q0 -85 -58 -90h-242q-58 5 -58 90h44q0 -33 11.5 -49t41.5 -16h164q30 0 41.5 16t12.5 49v183h-257q-58 5 -58 90v358h44v-358q0 -33 11.5 -49
t41.5 -16h217v423z" />
    <glyph glyph-name="afii10017" unicode="&#x410;" horiz-adv-x="442" 
d="M84 380v-380h-44v633l81 85h281v-718h-44v380h-274zM84 614v-210h274v290h-198z" />
    <glyph glyph-name="afii10018" unicode="&#x411;" horiz-adv-x="441" 
d="M83 443l259 1q58 0 58 -86v-272q0 -81 -58 -86h-302v718h361v-24h-318v-251zM356 85v273q0 32 -11 46t-42 14h-220v-393h220q31 0 42 14t11 46z" />
    <glyph glyph-name="afii10019" unicode="&#x412;" horiz-adv-x="440" 
d="M400 320v-234q0 -81 -58 -86h-302v718h244q30 0 47 -19t17 -57v-146q0 -41 -13 -64.5t-48 -25.5h55q58 -5 58 -86zM304 464v170q0 32 -11 46t-42 14h-168v-290h168q31 0 42 14t11 46zM356 85v235q0 32 -11 46t-42 14h-220v-355h220q31 0 42 14t11 46z" />
    <glyph glyph-name="afii10020" unicode="&#x413;" horiz-adv-x="421" 
d="M40 0v718h361v-90h-44v66h-273v-693z" />
    <glyph glyph-name="afii10021" unicode="&#x414;" horiz-adv-x="613" 
d="M207 718h280v-683l106 1v-186h-42v150h-489v-150h-42v186l106 -1v598zM443 693h-198l-75 -79v-579h273v658z" />
    <glyph glyph-name="afii10022" unicode="&#x415;" horiz-adv-x="441" 
d="M40 0v718h361v-90h-44v66h-273v-290h233v-24h-233v-355h273v65h44v-90h-361z" />
    <glyph glyph-name="afii10024" unicode="&#x416;" horiz-adv-x="644" 
d="M300 380h-86l-130 -380h-44l130 379v25l-130 315l44 -1l130 -314h86v315l44 -1v-314h86l130 315l44 -1l-130 -314v-24l130 -380h-44l-130 380h-86v-380h-44v380z" />
    <glyph glyph-name="afii10025" unicode="&#x417;" horiz-adv-x="441" 
d="M343 426q58 -5 58 -85v-251q0 -85 -58 -90h-245q-58 5 -58 90h44q0 -33 11.5 -49t41.5 -16h167q30 0 41.5 16t11.5 49v251q0 33 -11.5 49t-41.5 16h-127v40h127q30 0 41.5 16t11.5 49v117q0 33 -11.5 49t-41.5 16h-167q-30 0 -41.5 -16t-11.5 -49h-44q0 85 58 90h245
q58 -5 58 -90v-117q0 -80 -58 -85z" />
    <glyph glyph-name="afii10026" unicode="&#x418;" horiz-adv-x="442" 
d="M40 719l44 -1v-644l274 644h44v-718h-44v640l-274 -640h-44v719z" />
    <glyph glyph-name="afii10027" unicode="&#x419;" horiz-adv-x="442" 
d="M40 719l44 -1v-644l274 644h44v-718h-44v640l-274 -640h-44v719zM67 984h14q3 -93 74 -128.5t139 3.5t62 125h19q-2 -56 -33 -95.5t-74.5 -50t-87.5 -2t-76.5 48t-36.5 99.5z" />
    <glyph glyph-name="afii10028" unicode="&#x41a;" horiz-adv-x="419" 
d="M40 0v718h43v-314h58l193 314h39l-191 -314l-7 -8l7 -8l197 -388h-52l-191 379h-53v-379h-43z" />
    <glyph glyph-name="afii10029" unicode="&#x41b;" horiz-adv-x="487" 
d="M163 716h283l1 -717h-42v693h-210l-73 -78v-561q0 -86 -56 -90h-46l1 25q62 0 64 65v583z" />
    <glyph glyph-name="afii10030" unicode="&#x41c;" horiz-adv-x="688" 
d="M648 718v-718h-43v650l-233 -580h-36l-266 579v-649h-30v718h42l276 -583l243 583h47z" />
    <glyph glyph-name="afii10031" unicode="&#x41d;" horiz-adv-x="442" 
d="M40 719l44 -1v-314h274v314h44v-718h-44v380h-274v-380h-44v719z" />
    <glyph glyph-name="afii10032" unicode="&#x41e;" horiz-adv-x="441" 
d="M84 628v-538q0 -33 11.5 -49t41.5 -16h167q30 0 41.5 16t11.5 49v538q0 33 -11.5 49t-41.5 16h-167q-30 0 -41.5 -16t-11.5 -49zM40 90v538q0 85 58 90h245q58 -5 58 -90v-538q0 -85 -58 -90h-245q-58 5 -58 90z" />
    <glyph glyph-name="afii10033" unicode="&#x41f;" horiz-adv-x="442" 
d="M40 719l362 -1v-718h-44v693h-274v-693h-44v719z" />
    <glyph glyph-name="afii10034" unicode="&#x420;" horiz-adv-x="440" 
d="M400 632v-234q0 -81 -58 -86h-257v-312h-45v718h302q58 -5 58 -86zM356 398v235q0 32 -11 46t-42 14h-220v-355h220q31 0 42 14t11 46z" />
    <glyph glyph-name="afii10035" unicode="&#x421;" horiz-adv-x="441" 
d="M40 90v538q0 85 58 90h245q58 -5 58 -90h-44q0 33 -11.5 49t-41.5 16h-167q-30 0 -41.5 -16t-11.5 -49v-538q0 -33 11.5 -49t41.5 -16h167q30 0 41.5 16t11.5 49h44q0 -85 -58 -90h-245q-58 5 -58 90z" />
    <glyph glyph-name="afii10036" unicode="&#x422;" horiz-adv-x="520" 
d="M244 694h-224v25h480v-25h-212v-693l-44 -1v694z" />
    <glyph glyph-name="afii10037" unicode="&#x423;" horiz-adv-x="478" 
d="M418 719v-630q0 -85 -58 -90h-242q-58 5 -58 90h44q0 -33 11.5 -49t41.5 -16h164q30 0 41.5 16t12.5 49v183h-257q-58 5 -58 90v358h44v-358q0 -33 11.5 -49t41.5 -16h217v423z" />
    <glyph glyph-name="afii10038" unicode="&#x424;" horiz-adv-x="541" 
d="M292 95h112q30 0 41.5 16t11.5 49v398q0 33 -11.5 49t-41.5 16h-112v-528zM248 95v528h-111q-30 0 -41.5 -16t-11.5 -49v-398q0 -33 11.5 -49t41.5 -16h111zM40 160v398q0 85 58 90h150v70h44v-70h151q58 -5 58 -90v-398q0 -85 -58 -90h-151v-70h-44v70h-150
q-58 5 -58 90z" />
    <glyph glyph-name="afii10039" unicode="&#x425;" horiz-adv-x="463" 
d="M237 415l151 303h35l-169 -340l169 -376h-39l-151 341l-156 -341h-35l173 375l-175 341h39z" />
    <glyph glyph-name="afii10040" unicode="&#x426;" horiz-adv-x="471" 
d="M402 -1h-362v720l44 -1v-694h273v695l44 -1v-695l50 1v-175h-50z" />
    <glyph glyph-name="afii10041" unicode="&#x427;" horiz-adv-x="459" 
d="M355 334v382h44v-716h-44v310l-257 -22q-58 5 -58 89v340h44v-340q0 -31 11 -43t42 -12z" />
    <glyph glyph-name="afii10042" unicode="&#x428;" horiz-adv-x="721" 
d="M681 -1h-641v720l44 -1v-694h256v695l44 -1v-694h253v695l44 -1v-719z" />
    <glyph glyph-name="afii10043" unicode="&#x429;" horiz-adv-x="771" 
d="M702 -1h-642v720l44 -1v-694h256v695l44 -1v-694h253v695l44 -1v-695l50 1v-175h-49v150z" />
    <glyph glyph-name="afii10044" unicode="&#x42a;" horiz-adv-x="500" 
d="M460 253v-167q0 -81 -58 -86h-302v685l-100 1v32h145v-379h257q58 -5 58 -86zM416 85v168q0 32 -11 46t-42 14h-220v-288h220q31 0 42 14t11 46z" />
    <glyph glyph-name="afii10045" unicode="&#x42b;" horiz-adv-x="595" 
d="M400 253v-167q0 -81 -58 -86h-302v718h45v-379h257q58 -5 58 -86zM356 85v168q0 32 -11 46t-42 14h-220v-288h220q31 0 42 14t11 46zM555 -1l-45 1v718h45v-719z" />
    <glyph glyph-name="afii10046" unicode="&#x42c;" horiz-adv-x="420" 
d="M400 253v-167q0 -81 -58 -86h-302v718h45v-379h257q58 -5 58 -86zM356 85v168q0 32 -11 46t-42 14h-220v-288h220q31 0 42 14t11 46z" />
    <glyph glyph-name="afii10047" unicode="&#x42d;" horiz-adv-x="441" 
d="M401 628v-538q0 -85 -58 -90h-245q-58 5 -58 90h44q0 -33 11.5 -49t41.5 -16h167q30 0 41.5 16t11.5 49v282h-250v30h250v226q0 33 -11.5 49t-41.5 16h-167q-30 0 -41.5 -16t-11.5 -49h-44q0 85 58 90h245q58 -5 58 -90z" />
    <glyph glyph-name="afii10048" unicode="&#x42e;" horiz-adv-x="635" 
d="M278 628v-538q0 -33 11.5 -49t41.5 -16h167q30 0 41.5 16t11.5 49v538q0 33 -11.5 49t-41.5 16h-167q-30 0 -41.5 -16t-11.5 -49zM234 380h-150v-380h-44v719l44 -1v-314h150v224q0 85 58 90h245q58 -5 58 -90v-538q0 -85 -58 -90h-245q-58 5 -58 90v290z" />
    <glyph glyph-name="afii10049" unicode="&#x42f;" horiz-adv-x="495" 
d="M139 633v-235q0 -32 11 -46t42 -14h220v355h-220q-31 0 -42 -14t-11 -46zM200 312h-47q-58 5 -58 86v234q0 81 58 86h302v-718h-45l-2 312h-160l-162 -312h-46z" />
    <glyph glyph-name="afii10065" unicode="&#x430;" 
d="M40 90v65q0 85 58 90h195l-1 73q-1 33 -12 49t-41 16h-102q-30 0 -41.5 -16t-11.5 -49h-44q0 85 58 90h180q58 -5 58 -90v-318h-238q-58 5 -58 90zM84 155v-65q0 -33 11.5 -49t41.5 -16h102q30 0 41.5 16t11.5 49v130h-155q-30 0 -41.5 -16t-11.5 -49z" />
    <glyph glyph-name="afii10066" unicode="&#x431;" 
d="M292 90v226q0 33 -11.5 49t-41.5 16h-102q-30 0 -41.5 -16t-11.5 -49v-226q0 -33 11.5 -49t41.5 -16h102q30 0 41.5 16t11.5 49zM277 499h-76h-3q-41 0 -75.5 -21t-33.5 -72h189q58 -5 58 -90v-226q0 -85 -58 -90h-180q-58 5 -58 90v226q0 208 137 208h64q29 1 39.5 17
t10.5 48h44q0 -90 -58 -90z" />
    <glyph glyph-name="afii10067" unicode="&#x432;" horiz-adv-x="378" 
d="M338 270v-184q0 -81 -58 -86h-240v588h182q30 0 47 -19t17 -57v0v0v0v0v1v0v0v1v0v0v1v0v0v0v0v1v0v0v0v-1v0v0v0v0v-1v0v0v-1v0v-1v0v-1v0v-1v0v-1v-1v0v-1v-1v-1v-1v-1v-1v-1v-1v-1v-1v-1v-1v-1v-1v-1v-1v-1v-1v-1v-1v-1v-1v-1v-1v-1v-1v-1v-1v-1v-1v-1v-1v-1v-1v-1v-1
v-1v-1v-1v-1v-1v-1v-1v-1v-1v-1v-1v-1v-1v-1v-1v-1v-1v-9q0 -30 -1.5 -45.5t-11 -30t-28.5 -14.5h35q58 -5 58 -86zM242 414v90q0 32 -11 46t-42 14h-106v-210h106q31 0 42 14t11 46zM294 85v185q0 32 -11 46t-42 14h-158v-305h158q31 0 42 14t11 46z" />
    <glyph glyph-name="afii10068" unicode="&#x433;" horiz-adv-x="254" 
d="M40 404h194v-27h-150v-376l-44 -1v404z" />
    <glyph glyph-name="afii10069" unicode="&#x434;" horiz-adv-x="377" 
d="M84 316v-226q0 -33 11.5 -49t41.5 -16h102q30 0 41.5 16t11.5 49v226q0 33 -11.5 49t-41.5 16h-102q-30 0 -41.5 -16t-11.5 -49zM287 406q2 45 -6 76t-19.5 47t-35 24t-40 9t-48.5 1q-30 0 -41.5 -16t-11.5 -49h-44q0 42 19.5 66t48.5 24h80q31 1 55 -9.5t39.5 -25.5
t26 -42.5t15.5 -47.5t8 -54t3 -49v-44v-226q0 -85 -58 -90h-180q-58 5 -58 90v226q0 85 58 90h189z" />
    <glyph glyph-name="afii10070" unicode="&#x435;" 
d="M292 283v35q0 33 -11.5 49t-41.5 16h-102q-30 0 -41.5 -16t-11.5 -49v-100h155q30 0 41.5 16t11.5 49zM98 408h180q58 -5 58 -90v-35q0 -85 -58 -90h-195v-103q1 -33 12.5 -49t41.5 -16h102q30 0 41.5 16t11.5 49h44q0 -85 -58 -90h-180q-58 5 -58 90v228q0 85 58 90z
" />
    <glyph glyph-name="afii10072" unicode="&#x436;" horiz-adv-x="470" 
d="M236 404v-152h71l60 152h43l-60 -150v-27l60 -227h-43l-60 227h-71v-227h-43v227h-70l-60 -227h-43l60 227v25l-60 152h43l60 -152h70v152h43z" />
    <glyph glyph-name="afii10073" unicode="&#x437;" horiz-adv-x="377" 
d="M279 202q30 -2 44 -20.5t14 -59.5v-32q0 -85 -58 -90h-181q-58 5 -58 90h44q0 -33 11.5 -49t41.5 -16h103q30 0 41.5 16t11.5 49v32q0 33 -11.5 49t-41.5 16h-113v30h113q30 0 41.5 16t11.5 49v34q0 33 -11.5 49t-41.5 16h-103q-30 0 -41.5 -16t-11.5 -49h-44q0 85 58 90
h181q58 -5 58 -90v-34q0 -41 -14 -59.5t-44 -20.5z" />
    <glyph glyph-name="afii10074" unicode="&#x438;" horiz-adv-x="378" 
d="M40 405l44 -1v-369l210 369h44v-404h-44v356l-210 -356h-44v405z" />
    <glyph glyph-name="afii10075" unicode="&#x439;" horiz-adv-x="388" 
d="M40 674h37q-3 -75 56.5 -108t119 -2t55.5 110h40q-2 -56 -33 -95.5t-74.5 -50t-87.5 -2t-76.5 48t-36.5 99.5zM47 405l44 -1v-369l210 369h44v-404h-44v356l-210 -356h-44v405z" />
    <glyph glyph-name="afii10076" unicode="&#x43a;" horiz-adv-x="349" 
d="M40 0v404h43v-170h18l153 170h39l-137 -150l-7 -8l7 -8l153 -238h-52l-131 209h-43v-209h-43z" />
    <glyph glyph-name="afii10077" unicode="&#x43b;" horiz-adv-x="422" 
d="M85 404h295l2 -405h-41v370l-213 1v-317q0 -85 -58 -90h-50l1 25q62 0 64 65v351z" />
    <glyph glyph-name="afii10078" unicode="&#x43c;" horiz-adv-x="551" 
d="M511 403v-403h-43v335l-190 -305l-208 304v-334h-30v403h32l202 -308l190 308h47z" />
    <glyph glyph-name="afii10079" unicode="&#x43d;" horiz-adv-x="378" 
d="M40 405l44 -1v-182h210v182h44v-404h-44v198h-210v-198h-44v405z" />
    <glyph glyph-name="afii10080" unicode="&#x43e;" 
d="M84 316v-226q0 -33 11.5 -49t41.5 -16h102q30 0 41.5 16t11.5 49v226q0 33 -11.5 49t-41.5 16h-102q-30 0 -41.5 -16t-11.5 -49zM40 90v226q0 85 58 90h180q58 -5 58 -90v-226q0 -85 -58 -90h-180q-58 5 -58 90z" />
    <glyph glyph-name="afii10081" unicode="&#x43f;" 
d="M84 368v-367h-44v401l296 1v-403h-44v368h-208z" />
    <glyph glyph-name="afii10082" unicode="&#x440;" 
d="M84 362v-316l155 -10q31 -4 42 9.5t11 45.5v226q0 32 -11 45.5t-42 9.5zM41 -204l-1 608h44v-17l194 20q28 4 43 -21t15 -69v-226q0 -44 -15 -69t-43 -21l-196 20l1 -225h-42z" />
    <glyph glyph-name="afii10083" unicode="&#x441;" 
d="M40 90v225q0 85 58 90h180q58 -5 58 -90h-44q0 33 -11.5 49t-41.5 16h-102q-30 0 -41.5 -16t-11.5 -49v-225q0 -33 11.5 -49t41.5 -16h102q30 0 41.5 16t11.5 49h44q0 -85 -58 -90h-180q-58 5 -58 90z" />
    <glyph glyph-name="afii10084" unicode="&#x442;" horiz-adv-x="337" 
d="M143 377h-123v25h297v-25h-130v-376l-44 -1v377z" />
    <glyph glyph-name="afii10085" unicode="&#x443;" 
d="M336 404v-542q0 -85 -58 -90h-180q-58 5 -58 90h44q0 -33 11.5 -49t41.5 -16h102q30 0 41.5 16t12.5 49v139h-195q-58 5 -58 90v313h44v-313q0 -33 11.5 -49t41.5 -16h155v378h44z" />
    <glyph glyph-name="afii10086" unicode="&#x444;" horiz-adv-x="528" 
d="M286 362v-316l105 -10q31 -4 42 9.5t11 45.5v226q0 32 -11 45.5t-42 9.5zM242 46v316l-105 10q-31 4 -42 -9.5t-11 -45.5v-226q0 -32 11 -45.5t42 -9.5zM284 -204h-41l1 225l-146 -20q-28 -4 -43 21t-15 69v226q0 44 15 69t43 21l144 -20v17h44v-17l144 20q28 4 43 -21
t15 -69v-226q0 -44 -15 -69t-43 -21l-146 20v-225z" />
    <glyph glyph-name="afii10087" unicode="&#x445;" horiz-adv-x="298" 
d="M153 236l91 167h34l-108 -195l108 -206h-46l-88 171l-86 -171h-38l109 204l-109 197h43z" />
    <glyph glyph-name="afii10088" unicode="&#x446;" horiz-adv-x="408" 
d="M83 404v-380h212v380h43v-379l50 -1v-175h-37v150l-311 2v403h43z" />
    <glyph glyph-name="afii10089" unicode="&#x447;" 
d="M292 204v197h44v-401h-44v180l-194 -22q-58 5 -58 89v155h44v-155q0 -31 11 -43t42 -12z" />
    <glyph glyph-name="afii10090" unicode="&#x448;" horiz-adv-x="550" 
d="M296 404v-380h171v380h43v-405h-470v405h43v-380h170v380h43z" />
    <glyph glyph-name="afii10091" unicode="&#x449;" horiz-adv-x="580" 
d="M296 404v-380h171v380h43v-379l50 -1v-175h-37v150h-483v405h43v-380h170v380h43z" />
    <glyph glyph-name="afii10092" unicode="&#x44a;" horiz-adv-x="425" 
d="M133 177v-86q0 -33 11.5 -49t41.5 -16h102q30 0 41.5 16t11.5 49v86q0 33 -11.5 49t-41.5 16h-102q-30 0 -41.5 -16t-11.5 -49zM89 91v280l-89 -1v32h132l-1 -135h196q58 -5 58 -90v-86q0 -85 -58 -90h-180q-58 5 -58 90z" />
    <glyph glyph-name="afii10093" unicode="&#x44b;" horiz-adv-x="483" 
d="M84 177v-86q0 -33 11.5 -49t41.5 -16h102q30 0 41.5 16t11.5 49v86q0 33 -11.5 49t-41.5 16h-102q-30 0 -41.5 -16t-11.5 -49zM40 91l1 311h42l-1 -135h196q58 -5 58 -90v-86q0 -85 -58 -90h-180q-58 5 -58 90zM400 1l1 401h42l-1 -401h-42z" />
    <glyph glyph-name="afii10094" unicode="&#x44c;" horiz-adv-x="336" 
d="M84 177v-86q0 -33 11.5 -49t41.5 -16h102q30 0 41.5 16t11.5 49v86q0 33 -11.5 49t-41.5 16h-102q-30 0 -41.5 -16t-11.5 -49zM40 91l1 311h42l-1 -135h196q58 -5 58 -90v-86q0 -85 -58 -90h-180q-58 5 -58 90z" />
    <glyph glyph-name="afii10095" unicode="&#x44d;" 
d="M336 315v-225q0 -85 -58 -90h-180q-58 5 -58 90h44q0 -33 11.5 -49t41.5 -16h102q30 0 41.5 16t11.5 49v110l-150 -1v25h150v91q0 33 -11.5 49t-41.5 16h-102q-30 0 -41.5 -16t-11.5 -49h-44q0 85 58 90h180q58 -5 58 -90z" />
    <glyph glyph-name="afii10096" unicode="&#x44e;" horiz-adv-x="533" 
d="M238 315v-225q0 -33 11.5 -49t41.5 -16h105q30 0 41.5 16t11.5 49v225q0 33 -11.5 49t-41.5 16h-105q-30 0 -41.5 -16t-11.5 -49zM194 198h-110v-198h-44v406l44 -1v-183h110v93q0 85 58 90h183q58 -5 58 -90v-225q0 -85 -58 -90h-183q-58 5 -58 90v108z" />
    <glyph glyph-name="afii10097" unicode="&#x44f;" horiz-adv-x="416" 
d="M128 320v-32q0 -32 11 -46t42 -14h152v152h-152q-31 0 -42 -14t-11 -46zM209 202l-67 -149q-5 -10 -13.5 -28t-12.5 -25.5t-11.5 -17.5t-15.5 -14t-19 -5h-50l1 25q15 0 26 4t20.5 16t13 18.5t13.5 26.5l67 149h-19q-58 5 -58 86v31q0 81 58 86h234v-405h-45v202h-122z
" />
    <glyph glyph-name="afii10071" unicode="&#x451;" horiz-adv-x="381" 
d="M40 614q0 19 13.5 32t32.5 13t32 -13t13 -32t-13 -32.5t-32 -13.5q-20 0 -33 13t-13 33zM250 614q0 19 13.5 32t32.5 13t32 -13t13 -32t-13 -32.5t-32 -13.5q-20 0 -33 13t-13 33zM292 283v35q0 33 -11.5 49t-41.5 16h-102q-30 0 -41.5 -16t-11.5 -49v-100h155
q30 0 41.5 16t11.5 49zM98 408h180q58 -5 58 -90v-35q0 -85 -58 -90h-195v-103q1 -33 12.5 -49t41.5 -16h102q30 0 41.5 16t11.5 49h44q0 -85 -58 -90h-180q-58 5 -58 90v228q0 85 58 90z" />
    <glyph glyph-name="afii10100" unicode="&#x453;" horiz-adv-x="274" 
d="M275 637l-160 -134l-30 37l157 135zM60 404l194 -2v-25h-150v-376l-44 -1v404z" />
    <glyph glyph-name="afii10101" unicode="&#x454;" 
d="M40 90v225q0 85 58 90h180q58 -5 58 -90h-44q0 33 -11.5 49t-41.5 16h-102q-30 0 -41.5 -16t-11.5 -49v-91h150v-25l-150 1v-110q0 -33 11.5 -49t41.5 -16h102q30 0 41.5 16t11.5 49h44q0 -85 -58 -90h-180q-58 5 -58 90z" />
    <glyph glyph-name="afii10102" unicode="&#x455;" horiz-adv-x="378" 
d="M137 249l143 -57q58 -23 58 -106q0 -47 -14 -65.5t-44 -20.5h-182q-58 5 -58 90h44q0 -33 11.5 -49t41.5 -16h104q30 0 41 16t12 49q1 41 -32.5 64t-163.5 83q-30 14 -44 33t-14 62q0 40 13.5 54t44.5 16h182q58 -5 58 -90h-44q0 33 -11.5 49t-41.5 16h-104h-9
q-16 0 -22.5 -0.5t-12.5 -5.5t-7.5 -16t-1.5 -31q0 -30 11.5 -46.5t41.5 -28.5z" />
    <glyph glyph-name="afii10103" unicode="&#x456;" horiz-adv-x="171" 
d="M95 406v-405h-24v405h24zM55 486q0 13 8 21t21 8t21 -8t8 -21t-8 -21t-21 -8t-21 8t-8 21z" />
    <glyph glyph-name="afii10104" unicode="&#x457;" horiz-adv-x="204" 
d="M124 402v-401h-44v401h44zM-46 614q0 19 13.5 32t32.5 13t32 -13t13 -32t-13 -32.5t-32 -13.5q-20 0 -33 13t-13 33zM164 614q0 19 13.5 32t32.5 13t32 -13t13 -32t-13 -32.5t-32 -13.5q-20 0 -33 13t-13 33z" />
    <glyph glyph-name="afii10105" unicode="&#x458;" horiz-adv-x="235" 
d="M153 401h23v-521q0 -85 -58 -90h-180q-58 5 -58 90h24q0 -75 53 -75h142q52 0 54 75v521zM102 542q0 19 13.5 32t32.5 13t32 -13t13 -32t-13 -32.5t-32 -13.5q-20 0 -33 13t-13 33z" />
    <glyph glyph-name="afii10109" unicode="&#x45c;" horiz-adv-x="329" 
d="M40 0v404h43v-170h18l153 170h39l-137 -150l-7 -8l7 -8l153 -238h-52l-131 209h-43v-209h-43zM249 647l-160 -134l-20 27l157 135z" />
    <glyph glyph-name="afii10110" unicode="&#x45e;" horiz-adv-x="417" 
d="M45 694h14q3 -93 74 -128.5t139 3.5t62 125h19q-2 -59 -33 -100.5t-74.5 -52t-87.5 -1.5t-76.5 50.5t-36.5 103.5zM356 404v-542q0 -85 -58 -90h-180q-58 5 -58 90h44q0 -33 11.5 -49t41.5 -16h102q30 0 41.5 16t12.5 49v139h-195q-58 5 -58 90v313h44v-313
q0 -33 11.5 -49t41.5 -16h155v378h44z" />
    <glyph glyph-name="afii10050" unicode="&#x490;" horiz-adv-x="421" 
d="M421 694h-317v-693l-44 -1v718h317v66h44v-90z" />
    <glyph glyph-name="endash" unicode="&#x2013;" horiz-adv-x="444" 
d="M40 346v35h364v-35h-364z" />
    <glyph glyph-name="emdash" unicode="&#x2014;" horiz-adv-x="794" 
d="M40 346v35h714v-35h-714z" />
    <glyph glyph-name="quoteleft" unicode="&#x2018;" horiz-adv-x="168" 
d="M128 545v-88h-88v91l69 127v-81l-29 -49h48z" />
    <glyph glyph-name="quoteright" unicode="&#x2019;" horiz-adv-x="168" 
d="M40 547v88h88v-91l-69 -127v81l29 49h-48z" />
    <glyph glyph-name="quotedblleft" unicode="&#x201c;" horiz-adv-x="358" 
d="M318 693v-88h-88v91l69 127v-81l-29 -49h48zM128 693v-88h-88v91l69 127v-81l-29 -49h48z" />
    <glyph glyph-name="quotedblright" unicode="&#x201d;" horiz-adv-x="358" 
d="M40 567v88h88v-91l-69 -127v81l29 49h-48zM230 567v88h88v-91l-69 -127v81l29 49h-48z" />
    <glyph glyph-name="quotedblbase" unicode="&#x201e;" horiz-adv-x="358" 
d="M40 -10v88h88v-91l-69 -127v81l29 49h-48zM230 -10v88h88v-91l-69 -127v81l29 49h-48z" />
    <glyph glyph-name="dagger" unicode="&#x2020;" horiz-adv-x="520" 
d="M244 454h-224v25h223l1 240h45l1 -240h210v-25h-212v-453l-44 -1v454z" />
    <glyph glyph-name="bullet" unicode="&#x2022;" horiz-adv-x="274" 
d="M40 332q0 40 28 68.5t69 28.5t69 -28.5t28 -68.5t-28 -68.5t-69 -28.5t-69 28.5t-28 68.5z" />
    <glyph glyph-name="ellipsis" unicode="&#x2026;" horiz-adv-x="502" 
d="M40 42q0 19 13.5 32t32.5 13t32 -13t13 -32t-13 -32.5t-32 -13.5q-20 0 -33 13t-13 33zM207 42q0 19 13.5 32t32.5 13t32 -13t13 -32t-13 -32.5t-32 -13.5t-32.5 13t-13.5 33zM371 42q0 19 13.5 32t32.5 13t32 -13t13 -32t-13 -32.5t-32 -13.5t-32.5 13t-13.5 33z" />
    <glyph glyph-name="Euro" unicode="&#x20ac;" horiz-adv-x="461" 
d="M60 90v210h-20v24h20v136h-20v24h20v144q0 85 58 90h245q58 -5 58 -90h-44q0 33 -11.5 49t-41.5 16h-167q-30 0 -41.5 -16t-11.5 -49v-144h232v-24h-232v-136h232v-24h-232v-210q0 -33 11.5 -49t41.5 -16h167q30 0 41.5 16t11.5 49h44q0 -85 -58 -90h-245q-58 5 -58 90z
" />
    <glyph glyph-name="afii61352" unicode="&#x2116;" horiz-adv-x="862" 
d="M40 719l322 -563v563h39v-718l-324 562v-562h-37v718zM544 718h199q24 0 24 -24v-266q0 -23 -24 -23h-199q-23 0 -23 23v266q0 24 23 24zM709 693h-131q-13 0 -13 -21v-222q0 -10 4.5 -15.5t8.5 -5.5h131q3 0 8.5 6t5.5 15v222q0 21 -14 21zM798 298h-305q-24 0 -24 23v4
q0 23 24 23h305q24 0 24 -23v-4q0 -23 -24 -23z" />
    <glyph glyph-name="trademark" unicode="&#x2122;" horiz-adv-x="746" 
d="M167 695l-127 -1v25l281 1v-25h-120v-294l-34 -1v295zM706 718v-313h-30v245l-132 -215l-123 214v-244h-30v313h20l136 -228l135 228h24z" />
    <glyph glyph-name="radical" unicode="&#x221a;" horiz-adv-x="610" 
d="M590 797h-118l-138 -897h-34l-166 568h-114v32h142l152 -517l129 846h147v-32z" />
    <glyph glyph-name="infinity" unicode="&#x221e;" horiz-adv-x="948" 
d="M908 334q0 -80 -59.5 -139.5t-142.5 -59.5q-43 0 -76 7.5t-63.5 27t-49.5 35.5t-55 52q-59 -57 -112.5 -89.5t-118.5 -32.5q-81 0 -136 53.5t-55 130.5q0 76 59.5 132.5t139.5 56.5q115 0 238 -129q107 129 226 129q86 0 145.5 -47t59.5 -127zM458 307q-117 143 -223 143
q-61 0 -97.5 -33.5t-36.5 -92.5q0 -63 31 -98t93 -35q115 0 233 116zM501 310q118 -116 233 -116q62 0 93 35t31 98q0 59 -36.5 92.5t-97.5 33.5q-106 0 -223 -143z" />
    <glyph glyph-name="approxequal" unicode="&#x2248;" horiz-adv-x="697" 
d="M118 338l-53 18q37 80 110 107t139 -13q15 -9 45.5 -45.5t59.5 -41.5q29 -2 62.5 -1.5t61.5 19.5t28 52l55 2q0 -51 -36.5 -85t-85 -40.5t-96.5 0.5q-28 6 -50.5 22.5t-35 32.5t-32 31t-40.5 17.5t-61 -8.5q-23 -8 -43.5 -28t-27.5 -39zM129 174l-53 18q37 80 110 107
t139 -13q15 -9 45.5 -45.5t59.5 -41.5q29 -2 62.5 -1.5t61.5 19.5t28 52l55 2q0 -51 -36.5 -85t-85 -40.5t-96.5 0.5q-28 6 -50.5 22.5t-35 32.5t-32 31t-40.5 17.5t-61 -8.5q-23 -8 -43.5 -28t-27.5 -39z" />
    <glyph glyph-name="notequal" unicode="&#x2260;" horiz-adv-x="406" 
d="M142 276l64 103h-152v25h167l121 191l24 -18l-108 -173h89v-25h-104l-65 -103h169v-25h-185l-97 -153l-25 15l88 138h-74v25h88z" />
    <glyph glyph-name="lessequal" unicode="&#x2264;" horiz-adv-x="386" 
d="M346 -110h-293v25h293v-25zM302 531l23 -21q-10 -10 -119 -124.5t-128 -133.5q19 -22 128 -134.5t123 -128.5l-19 -19l-270 283z" />
    <glyph glyph-name="greaterequal" unicode="&#x2265;" horiz-adv-x="386" 
d="M333 -110h-293v25h293v-25zM61 510l23 21l262 -278l-270 -283l-19 19q14 16 123 128.5t128 134.5q-19 19 -128 133.5t-119 124.5z" />
    <glyph glyph-name="CR" horiz-adv-x="400" 
 />
    <glyph glyph-name="_rur" horiz-adv-x="460" 
d="M420 632v-234q0 -81 -58 -86h-258v-70h220v-26h-220v-216h-44v216h-40v26h40v74h-40v25h40v377h302q58 -5 58 -86zM376 398v235q0 32 -11 46t-42 14h-220v-355h220q31 0 42 14t11 46z" />
  </font>
</defs>
</svg>
