<svg width="37" height="40" viewBox="0 0 37 40" fill="none" xmlns="http://www.w3.org/2000/svg">
<path d="M5.41992 40H17.4883V25.7812H13.1523V21.0938H17.4883V15.2344C17.4883 12.0035 19.9196 9.375 22.9082 9.375H28.3281V14.0625H23.9922C22.7967 14.0625 21.8242 15.1138 21.8242 16.4062V21.0938H28.1325L27.4098 25.7812H21.8242V40H31.5801C34.5687 40 37 37.3715 37 34.1406V5.85938C37 2.62848 34.5687 0 31.5801 0H5.41992C2.43134 0 0 2.62848 0 5.85938V34.1406C0 37.3715 2.43134 40 5.41992 40ZM2.16797 5.85938C2.16797 3.9209 3.62683 2.34375 5.41992 2.34375H31.5801C33.3732 2.34375 34.832 3.9209 34.832 5.85938V34.1406C34.832 36.0791 33.3732 37.6562 31.5801 37.6562H23.9922V28.125H29.2464L30.6917 18.75H23.9922V16.4062H30.4961V7.03125H22.9082C18.7241 7.03125 15.3203 10.7111 15.3203 15.2344V18.75H10.9844V28.125H15.3203V37.6562H5.41992C3.62683 37.6562 2.16797 36.0791 2.16797 34.1406V5.85938Z" fill="#EAEAEA"/>
</svg>
