<svg width="43" height="40" viewBox="0 0 43 40" fill="none" xmlns="http://www.w3.org/2000/svg">
<path d="M30.9223 0H11.4771C5.14854 0 0 4.80488 0 10.7111V28.8586C0 34.7645 5.14854 39.5693 11.4771 39.5693H30.9226C37.2509 39.5693 42.3995 34.7645 42.3995 28.8586V10.7111C42.3995 4.80488 37.2509 0 30.9223 0V0ZM39.9138 28.8586C39.9138 33.4853 35.8803 37.2496 30.9223 37.2496H11.4771C6.51914 37.2496 2.48564 33.4853 2.48564 28.8586V10.7111C2.48564 6.08399 6.51914 2.31972 11.4771 2.31972H30.9226C35.8803 2.31972 39.9138 6.08399 39.9138 10.7111V28.8586Z" fill="#EAEAEA"/>
<path d="M21.1997 8.96484C14.8071 8.96484 9.60645 13.8183 9.60645 19.7842C9.60645 25.7501 14.8071 30.6035 21.1997 30.6035C27.5924 30.6035 32.793 25.7501 32.793 19.7842C32.793 13.8183 27.5924 8.96484 21.1997 8.96484ZM21.1997 28.2838C16.178 28.2838 12.0921 24.471 12.0921 19.7842C12.0921 15.0977 16.178 11.2845 21.1997 11.2845C26.2218 11.2845 30.3074 15.0977 30.3074 19.7842C30.3074 24.471 26.2218 28.2838 21.1997 28.2838Z" fill="#EAEAEA"/>
<path d="M33.0702 5.12207C31.1811 5.12207 29.6445 6.55638 29.6445 8.31916C29.6445 10.0822 31.1811 11.5166 33.0702 11.5166C34.9593 11.5166 36.4962 10.0822 36.4962 8.31916C36.4962 6.55608 34.9593 5.12207 33.0702 5.12207ZM33.0702 9.19648C32.552 9.19648 32.1302 8.8028 32.1302 8.31916C32.1302 7.83522 32.552 7.44185 33.0702 7.44185C33.5887 7.44185 34.0106 7.83522 34.0106 8.31916C34.0106 8.8028 33.5887 9.19648 33.0702 9.19648Z" fill="#EAEAEA"/>
</svg>
