<svg width="173" height="61" viewBox="0 0 173 61" fill="none" xmlns="http://www.w3.org/2000/svg">
<path d="M64.3386 14.8V22.99C64.3386 24.88 63.6619 25.8833 62.3086 26H51.7386V0.869998H60.2786C60.9786 0.869998 61.5269 1.09166 61.9236 1.535C62.3202 1.97833 62.5186 2.64333 62.5186 3.53V8.64C62.5186 9.59667 62.3669 10.355 62.0636 10.915C61.7602 11.4517 61.2002 11.7433 60.3836 11.79H62.3086C63.6619 11.9067 64.3386 12.91 64.3386 14.8ZM60.9786 9.76V3.81C60.9786 3.06333 60.8502 2.52667 60.5936 2.2C60.3369 1.87333 59.8469 1.71 59.1236 1.71H53.2436V11.86H59.1236C59.8469 11.86 60.3369 11.6967 60.5936 11.37C60.8502 11.0433 60.9786 10.5067 60.9786 9.76ZM62.7986 23.025V14.8C62.7986 14.0533 62.6702 13.5167 62.4136 13.19C62.1569 12.8633 61.6669 12.7 60.9436 12.7H53.2436V25.125H60.9436C61.6669 25.125 62.1569 24.9617 62.4136 24.635C62.6702 24.3083 62.7986 23.7717 62.7986 23.025ZM74.8536 0.905L76.3936 0.869998V26H74.8536V0.905ZM89.1372 4.02V22.85C89.1372 23.62 89.2655 24.1917 89.5222 24.565C89.8022 24.9383 90.2922 25.125 90.9922 25.125H96.8372C97.5372 25.125 98.0155 24.9383 98.2722 24.565C98.5522 24.1917 98.6922 23.62 98.6922 22.85V4.02C98.6922 3.25 98.5522 2.67833 98.2722 2.305C98.0155 1.93167 97.5372 1.745 96.8372 1.745H90.9922C90.2922 1.745 89.8022 1.93167 89.5222 2.305C89.2655 2.67833 89.1372 3.25 89.1372 4.02ZM87.5972 22.85V4.02C87.5972 2.03667 88.2738 0.986665 89.6272 0.869998H98.2022C99.5555 0.986665 100.232 2.03667 100.232 4.02V22.85C100.232 24.8333 99.5555 25.8833 98.2022 26H89.6272C88.2738 25.8833 87.5972 24.8333 87.5972 22.85ZM21.9999 35.87V61H20.4949V38.25L12.3399 58.55H11.0799L1.76992 38.285V61H0.719919V35.87H2.18992L11.8499 56.275L20.3549 35.87H21.9999ZM32.4838 61V35.87H45.1188V39.02H43.5788V36.71H34.0238V46.86H42.1788V47.7H34.0238V60.125H43.5788V57.85H45.1188V61H32.4838ZM54.9344 57.85V39.02C54.9344 37.0367 55.611 35.9867 56.9644 35.87H65.5394C66.8927 35.9867 67.5694 37.0367 67.5694 39.02H66.0294C66.0294 38.25 65.8894 37.6783 65.6094 37.305C65.3527 36.9317 64.8744 36.745 64.1744 36.745H58.3294C57.6294 36.745 57.1394 36.9317 56.8594 37.305C56.6027 37.6783 56.4744 38.25 56.4744 39.02V57.85C56.4744 58.62 56.6027 59.1917 56.8594 59.565C57.1394 59.9383 57.6294 60.125 58.3294 60.125H64.1744C64.8744 60.125 65.3527 59.9383 65.6094 59.565C65.8894 59.1917 66.0294 58.62 66.0294 57.85H67.5694C67.5694 59.8333 66.8927 60.8833 65.5394 61H56.9644C55.611 60.8833 54.9344 59.8333 54.9344 57.85ZM77.3836 35.835L78.9236 35.87V46.86H88.5136V35.87H90.0536V61H88.5136V47.7H78.9236V61H77.3836V35.835ZM101.408 47.7V61H99.8684V38.845L102.703 35.87H112.538V61H110.998V47.7H101.408ZM101.408 39.51V46.86H110.998V36.71H104.068L101.408 39.51ZM122.352 35.835L135.722 56.24V35.835H137.087V60.965L123.647 40.595V60.965H122.352V35.835ZM148.287 35.905L149.827 35.87V61H148.287V35.905ZM160.331 57.85V39.02C160.331 37.0367 161.008 35.9867 162.361 35.87H170.936C172.289 35.9867 172.966 37.0367 172.966 39.02H171.426C171.426 38.25 171.286 37.6783 171.006 37.305C170.749 36.9317 170.271 36.745 169.571 36.745H163.726C163.026 36.745 162.536 36.9317 162.256 37.305C161.999 37.6783 161.871 38.25 161.871 39.02V57.85C161.871 58.62 161.999 59.1917 162.256 59.565C162.536 59.9383 163.026 60.125 163.726 60.125H169.571C170.271 60.125 170.749 59.9383 171.006 59.565C171.286 59.1917 171.426 58.62 171.426 57.85H172.966C172.966 59.8333 172.289 60.8833 170.936 61H162.361C161.008 60.8833 160.331 59.8333 160.331 57.85Z" fill="#EBEBEB"/>
</svg>
